<svg fill="#000000" xmlns="http://www.w3.org/2000/svg"  viewBox="0 0 80 80" width="80px" height="80px"><path d="M 40 7 C 21.785 7 7 21.785 7 40 C 7 58.215 21.785 73 40 73 C 58.215 73 73 58.215 73 40 C 73 21.785 58.215 7 40 7 z M 40 9 C 57.133 9 71 22.867 71 40 C 71 57.133 57.133 71 40 71 C 22.867 71 9 57.133 9 40 C 9 22.867 22.867 9 40 9 z M 40 12 C 39.449 12 39 12.449 39 13 C 39 13.551 39.449 14 40 14 C 40.551 14 41 13.551 41 13 C 41 12.449 40.551 12 40 12 z M 45.292969 12.515625 C 44.804969 12.503625 44.383156 12.843219 44.285156 13.324219 C 44.180156 13.863219 44.531219 14.391953 45.074219 14.501953 C 45.613219 14.606953 46.14 14.255797 46.25 13.716797 C 46.355 13.173797 46.003844 12.645156 45.464844 12.535156 C 45.405844 12.526156 45.351969 12.519625 45.292969 12.515625 z M 34.738281 12.519531 C 34.672281 12.519531 34.605062 12.523156 34.539062 12.535156 C 33.996063 12.644156 33.643906 13.173797 33.753906 13.716797 C 33.804906 13.974797 33.956688 14.204516 34.179688 14.353516 C 34.398688 14.498516 34.667687 14.552953 34.929688 14.501953 C 35.472687 14.392953 35.824844 13.867219 35.714844 13.324219 C 35.620844 12.858219 35.215281 12.522531 34.738281 12.519531 z M 29.675781 14.054688 C 29.542781 14.054688 29.410156 14.077906 29.285156 14.128906 C 28.773156 14.343906 28.531094 14.9255 28.746094 15.4375 C 28.957094 15.9495 29.538781 16.191469 30.050781 15.980469 C 30.562781 15.765469 30.80475 15.183875 30.59375 14.671875 C 30.43675 14.300875 30.077781 14.058688 29.675781 14.054688 z M 50.355469 14.054688 C 49.941469 14.046688 49.56625 14.288875 49.40625 14.671875 C 49.19525 15.183875 49.437219 15.765469 49.949219 15.980469 C 50.461219 16.191469 51.042906 15.9495 51.253906 15.4375 C 51.468906 14.9255 51.226844 14.343906 50.714844 14.128906 C 50.601844 14.081906 50.477469 14.058687 50.355469 14.054688 z M 25.011719 16.546875 C 24.808719 16.546875 24.609406 16.60575 24.441406 16.71875 C 23.984406 17.02375 23.860922 17.644469 24.169922 18.105469 C 24.474922 18.562469 25.095641 18.687906 25.556641 18.378906 C 26.017641 18.073906 26.137031 17.453094 25.832031 16.996094 C 25.647031 16.719094 25.339719 16.550875 25.011719 16.546875 z M 55.015625 16.546875 C 54.675625 16.542875 54.355969 16.711094 54.167969 16.996094 C 53.858969 17.453094 53.984406 18.073906 54.441406 18.378906 C 54.902406 18.687906 55.523125 18.562469 55.828125 18.105469 C 55.976125 17.886469 56.031469 17.613469 55.980469 17.355469 C 55.929469 17.093469 55.777687 16.86375 55.554688 16.71875 C 55.395688 16.60875 55.210625 16.550875 55.015625 16.546875 z M 20.921875 19.90625 C 20.651875 19.90625 20.391125 20.011125 20.203125 20.203125 C 19.812125 20.590125 19.812125 21.226281 20.203125 21.613281 C 20.590125 22.004281 21.226281 22.004281 21.613281 21.613281 C 22.004281 21.226281 22.004281 20.590125 21.613281 20.203125 C 21.430281 20.016125 21.183875 19.91025 20.921875 19.90625 z M 59.105469 19.90625 C 58.835469 19.90625 58.574719 20.011125 58.386719 20.203125 C 57.995719 20.590125 57.995719 21.226281 58.386719 21.613281 C 58.773719 22.004281 59.409875 22.004281 59.796875 21.613281 C 60.187875 21.226281 60.187875 20.590125 59.796875 20.203125 C 59.613875 20.016125 59.367469 19.91025 59.105469 19.90625 z M 17.566406 24 C 17.226406 23.992 16.90675 24.160406 16.71875 24.441406 C 16.41375 24.902406 16.533141 25.523125 16.994141 25.828125 C 17.455141 26.137125 18.073813 26.011688 18.382812 25.554688 C 18.687812 25.093688 18.566469 24.472969 18.105469 24.167969 C 17.945469 24.061969 17.762406 24.004 17.566406 24 z M 62.460938 24 C 62.257937 23.996 62.062531 24.054969 61.894531 24.167969 C 61.437531 24.472969 61.312094 25.093781 61.621094 25.550781 C 61.926094 26.011781 62.548859 26.137125 63.005859 25.828125 C 63.466859 25.519125 63.59025 24.902406 63.28125 24.441406 C 63.09725 24.168406 62.788938 24 62.460938 24 z M 22.712891 27.15625 C 21.382891 27.15625 20.300781 28.238359 20.300781 29.568359 L 20.300781 49.347656 C 20.300781 52.235656 22.649109 54.587891 25.537109 54.587891 L 46.503906 54.587891 C 49.391906 54.587891 51.741188 52.236656 51.742188 49.347656 L 51.742188 49.142578 C 57.673188 48.994578 62.451172 44.124203 62.451172 38.158203 C 62.451172 32.092203 57.521891 27.15625 51.462891 27.15625 L 22.712891 27.15625 z M 15.078125 28.667969 C 14.664125 28.659969 14.288812 28.902156 14.132812 29.285156 C 13.921812 29.797156 14.163875 30.37875 14.671875 30.59375 C 15.183875 30.80475 15.769469 30.562781 15.980469 30.050781 C 16.191469 29.538781 15.9495 28.957094 15.4375 28.746094 C 15.3235 28.695094 15.203125 28.671969 15.078125 28.667969 z M 64.953125 28.667969 C 64.820125 28.663969 64.6875 28.691187 64.5625 28.742188 C 64.0505 28.953187 63.808531 29.538875 64.019531 30.046875 C 64.234531 30.558875 64.816125 30.800844 65.328125 30.589844 C 65.840125 30.378844 66.082094 29.79325 65.871094 29.28125 C 65.715094 28.91425 65.355125 28.667969 64.953125 28.667969 z M 22.712891 29.15625 L 51.462891 29.15625 C 56.419891 29.15625 60.451172 33.194203 60.451172 38.158203 C 60.451172 43.115203 56.419891 47.146484 51.462891 47.146484 L 50.740234 47.146484 C 50.188234 47.146484 49.740234 47.593484 49.740234 48.146484 L 49.740234 49.347656 C 49.740234 51.133656 48.289906 52.585938 46.503906 52.585938 L 25.537109 52.585938 C 23.752109 52.585938 22.298828 51.133656 22.298828 49.347656 L 22.298828 29.568359 C 22.298828 29.344359 22.488891 29.15625 22.712891 29.15625 z M 50.742188 32.511719 C 50.190188 32.511719 49.742188 32.958719 49.742188 33.511719 L 49.742188 42.792969 C 49.742187 43.345969 50.190188 43.792969 50.742188 43.792969 L 51.462891 43.792969 C 54.569891 43.792969 57.097656 41.266203 57.097656 38.158203 C 57.097656 35.044203 54.569891 32.511719 51.462891 32.511719 L 50.742188 32.511719 z M 40.171875 32.535156 C 38.225437 32.478719 36.636953 33.497719 35.751953 34.230469 C 34.509953 33.183469 33.001922 32.609703 31.419922 32.595703 C 29.808922 32.613703 28.334422 33.169031 27.357422 34.207031 C 25.375422 36.313031 25.842453 39.821094 27.439453 41.996094 C 28.302453 43.171094 30.850672 45.557344 33.388672 47.902344 C 33.977672 48.447344 34.429609 48.864203 34.599609 49.033203 C 34.599609 49.033203 34.692875 49.138641 34.921875 49.306641 C 35.198875 49.510641 35.495438 49.595703 35.773438 49.595703 C 36.162438 49.595703 36.517422 49.430219 36.732422 49.199219 C 36.932422 49.018219 41.654422 44.700859 43.857422 42.130859 C 45.194422 40.562859 45.754266 38.438891 45.322266 36.587891 C 44.945266 34.972891 43.845609 33.698 42.224609 33 C 41.509109 32.69175 40.820688 32.553969 40.171875 32.535156 z M 13.546875 33.734375 C 13.058875 33.722375 12.637063 34.058156 12.539062 34.535156 C 12.488062 34.797156 12.5395 35.070062 12.6875 35.289062 C 12.8355 35.512062 13.066125 35.663844 13.328125 35.714844 C 13.586125 35.765844 13.855125 35.710406 14.078125 35.566406 C 14.297125 35.418406 14.449 35.187781 14.5 34.925781 C 14.609 34.386781 14.25775 33.86 13.71875 33.75 C 13.65975 33.742 13.604875 33.734375 13.546875 33.734375 z M 66.484375 33.734375 C 66.418375 33.730375 66.351156 33.738 66.285156 33.75 C 65.746156 33.859 65.394 34.386781 65.5 34.925781 C 65.609 35.468781 66.136781 35.820844 66.675781 35.714844 C 67.218781 35.605844 67.570844 35.078156 67.464844 34.535156 C 67.370844 34.070156 66.961375 33.734375 66.484375 33.734375 z M 51.742188 34.521484 C 53.616188 34.665484 55.097656 36.241203 55.097656 38.158203 C 55.097656 40.068203 53.616188 41.63825 51.742188 41.78125 L 51.742188 34.521484 z M 40.013672 34.539062 C 40.465876 34.537878 40.942344 34.623875 41.433594 34.835938 C 42.471594 35.281937 43.144953 36.043062 43.376953 37.039062 C 43.662953 38.265063 43.254891 39.752125 42.337891 40.828125 C 40.575891 42.884125 36.975766 46.248047 35.759766 47.373047 C 35.515766 47.143047 35.164094 46.820594 34.746094 46.433594 C 33.043094 44.859594 29.873734 41.928547 29.052734 40.810547 C 28.104734 39.518547 27.494406 36.982125 28.816406 35.578125 C 29.404406 34.952125 30.331234 34.595703 31.365234 34.595703 C 31.377234 34.595703 31.391297 34.59475 31.404297 34.59375 C 32.748297 34.60575 34.025906 35.204297 35.003906 36.279297 C 35.193906 36.487297 35.463141 36.605469 35.744141 36.605469 L 35.748047 36.605469 C 36.032047 36.603469 36.304187 36.480531 36.492188 36.269531 C 36.568562 36.183406 38.054119 34.544195 40.013672 34.539062 z M 13 39 C 12.449 39 12 39.449 12 40 C 12 40.551 12.449 41 13 41 C 13.551 41 14 40.551 14 40 C 14 39.449 13.551 39 13 39 z M 67 39 C 66.449 39 66 39.449 66 40 C 66 40.551 66.449 41 67 41 C 67.551 41 68 40.551 68 40 C 68 39.449 67.551 39 67 39 z M 13.523438 44.265625 C 13.457437 44.265625 13.390219 44.273156 13.324219 44.285156 C 12.781219 44.394156 12.429063 44.923797 12.539062 45.466797 C 12.648062 46.005797 13.171844 46.357953 13.714844 46.251953 C 14.257844 46.142953 14.61 45.613219 14.5 45.074219 C 14.406 44.604219 14.000438 44.269625 13.523438 44.265625 z M 66.507812 44.265625 C 66.019813 44.253625 65.598 44.593219 65.5 45.074219 C 65.395 45.613219 65.746156 46.141953 66.285156 46.251953 C 66.828156 46.356953 67.354844 46.005797 67.464844 45.466797 C 67.569844 44.923797 67.218781 44.395156 66.675781 44.285156 C 66.620781 44.276156 66.565812 44.269625 66.507812 44.265625 z M 64.96875 49.328125 C 64.55475 49.320125 64.179531 49.566219 64.019531 49.949219 C 63.808531 50.457219 64.0505 51.042906 64.5625 51.253906 C 65.0745 51.464906 65.656094 51.222844 65.871094 50.714844 C 66.082094 50.202844 65.840125 49.61725 65.328125 49.40625 C 65.214125 49.35925 65.08975 49.332125 64.96875 49.328125 z M 15.0625 49.332031 C 14.9295 49.332031 14.796875 49.35525 14.671875 49.40625 C 14.429875 49.50825 14.233812 49.703219 14.132812 49.949219 C 14.030812 50.195219 14.030906 50.468844 14.128906 50.714844 C 14.343906 51.226844 14.9255 51.468906 15.4375 51.253906 C 15.6835 51.155906 15.878469 50.960844 15.980469 50.714844 C 16.082469 50.468844 16.082469 50.195219 15.980469 49.949219 C 15.828469 49.578219 15.4655 49.336031 15.0625 49.332031 z M 17.5625 54 C 17.3595 53.996 17.164094 54.054969 16.996094 54.167969 C 16.539094 54.476969 16.41375 55.093688 16.71875 55.554688 C 17.02775 56.011688 17.648375 56.137125 18.109375 55.828125 C 18.566375 55.523125 18.691812 54.902406 18.382812 54.441406 C 18.198813 54.168406 17.8915 54.004 17.5625 54 z M 62.46875 54 C 62.12875 53.992 61.809094 54.160406 61.621094 54.441406 C 61.312094 54.902406 61.437531 55.519125 61.894531 55.828125 C 62.113531 55.976125 62.386531 56.031563 62.644531 55.976562 C 62.906531 55.925562 63.13625 55.773781 63.28125 55.550781 C 63.59025 55.093781 63.464906 54.472969 63.003906 54.167969 C 62.847906 54.059969 62.65975 54 62.46875 54 z M 20.921875 58.09375 C 20.651875 58.08975 20.391125 58.195719 20.203125 58.386719 C 19.812125 58.773719 19.812125 59.409875 20.203125 59.796875 C 20.590125 60.187875 21.226281 60.187875 21.613281 59.796875 C 22.004281 59.409875 22.004281 58.773719 21.613281 58.386719 C 21.430281 58.198719 21.183875 58.09375 20.921875 58.09375 z M 59.105469 58.09375 C 58.835469 58.08975 58.574719 58.195719 58.386719 58.386719 C 57.995719 58.773719 57.995719 59.409875 58.386719 59.796875 C 58.773719 60.187875 59.409875 60.187875 59.796875 59.796875 C 60.187875 59.409875 60.187875 58.773719 59.796875 58.386719 C 59.613875 58.198719 59.367469 58.09375 59.105469 58.09375 z M 25.019531 61.449219 C 24.679531 61.441219 24.359875 61.609625 24.171875 61.890625 C 23.862875 62.351625 23.988219 62.97225 24.449219 63.28125 C 24.906219 63.58625 25.527031 63.460906 25.832031 63.003906 C 26.141031 62.542906 26.015594 61.926187 25.558594 61.617188 C 25.397594 61.512188 25.210531 61.449219 25.019531 61.449219 z M 55.011719 61.449219 C 54.808719 61.445219 54.613312 61.504281 54.445312 61.613281 C 54.222313 61.761281 54.070531 61.991906 54.019531 62.253906 C 53.968531 62.511906 54.023875 62.784906 54.171875 63.003906 C 54.476875 63.460906 55.097594 63.58625 55.558594 63.28125 C 56.015594 62.97225 56.141031 62.351625 55.832031 61.890625 C 55.652031 61.617625 55.343719 61.449219 55.011719 61.449219 z M 29.691406 63.941406 C 29.277406 63.933406 28.902094 64.1795 28.746094 64.5625 C 28.535094 65.0705 28.777156 65.656187 29.285156 65.867188 C 29.797156 66.078187 30.38275 65.836125 30.59375 65.328125 C 30.80475 64.816125 30.562781 64.230531 30.050781 64.019531 C 29.936781 63.973531 29.816406 63.945406 29.691406 63.941406 z M 50.339844 63.941406 C 50.206844 63.941406 50.074125 63.968531 49.953125 64.019531 C 49.707125 64.121531 49.512156 64.316594 49.410156 64.558594 C 49.308156 64.804594 49.30825 65.081125 49.40625 65.328125 C 49.62125 65.836125 50.202844 66.078188 50.714844 65.867188 C 50.960844 65.765187 51.155812 65.570125 51.257812 65.328125 C 51.359812 65.082125 51.359812 64.8055 51.257812 64.5625 C 51.104812 64.1875 50.741844 63.945406 50.339844 63.941406 z M 34.761719 65.480469 C 34.273719 65.468469 33.847906 65.808156 33.753906 66.285156 C 33.644906 66.828156 33.996062 67.350938 34.539062 67.460938 C 35.082062 67.570937 35.604844 67.218781 35.714844 66.675781 C 35.824844 66.132781 35.472688 65.61 34.929688 65.5 C 34.874688 65.488 34.815719 65.480469 34.761719 65.480469 z M 45.269531 65.484375 C 45.203531 65.480375 45.136219 65.488 45.074219 65.5 C 44.531219 65.609 44.179156 66.132781 44.285156 66.675781 C 44.340156 66.937781 44.493891 67.1635 44.712891 67.3125 C 44.935891 67.4605 45.204797 67.515844 45.466797 67.464844 C 45.724797 67.409844 45.954516 67.258062 46.103516 67.039062 C 46.248516 66.816063 46.302953 66.547156 46.251953 66.285156 C 46.156953 65.820156 45.745531 65.484375 45.269531 65.484375 z M 40 66 C 39.449 66 39 66.449 39 67 C 39 67.551 39.449 68 40 68 C 40.551 68 41 67.551 41 67 C 41 66.449 40.551 66 40 66 z"/></svg>